<?xml version="1.0" standalone="no"?>
<!DOCTYPE svg PUBLIC "-//W3C//DTD SVG 20010904//EN"
 "http://www.w3.org/TR/2001/REC-SVG-20010904/DTD/svg10.dtd">
<svg version="1.0" xmlns="http://www.w3.org/2000/svg"
 width="260.000000pt" height="260.000000pt" viewBox="0 0 260.000000 260.000000"
 preserveAspectRatio="xMidYMid meet">
<metadata>
Created by potrace 1.11, written by Peter Selinger 2001-2013
</metadata>
<g transform="translate(0.000000,260.000000) scale(0.100000,-0.100000)"
fill="#000000" stroke="none">
<path d="M610 2000 c-7 -10 -18 -16 -24 -13 -5 4 -7 -1 -3 -10 4 -10 2 -16 -6
-14 -7 1 -11 -4 -9 -12 1 -7 -3 -19 -9 -27 -9 -11 -8 -14 2 -14 9 0 10 -3 4
-8 -15 -11 -17 -52 -2 -52 8 0 7 -4 -3 -10 -8 -5 -11 -10 -6 -10 5 0 3 -6 -3
-14 -9 -11 -9 -16 0 -22 8 -4 9 -3 5 4 -4 7 -2 12 3 12 14 0 14 -13 0 -27 -7
-7 -8 -13 0 -17 7 -4 7 -15 1 -30 -5 -13 -7 -26 -4 -29 3 -2 -2 -7 -11 -10 -8
-4 -15 -1 -15 6 0 7 -3 8 -8 2 -9 -12 -212 -14 -205 -2 3 5 -5 4 -17 -3 -12
-6 -24 -9 -27 -7 -8 9 -63 -14 -57 -24 3 -5 -1 -9 -9 -9 -34 0 -37 -44 -37
-524 0 -400 2 -478 15 -502 8 -16 17 -28 20 -26 14 6 25 1 25 -13 0 -13 110
-15 875 -15 481 0 874 3 873 7 -2 5 1 9 5 10 15 4 37 32 37 47 0 9 5 16 11 16
5 0 8 4 4 9 -3 5 -1 13 5 16 8 5 7 11 -1 21 -9 11 -8 14 2 15 8 0 5 4 -6 9
l-20 9 20 1 c11 1 14 4 8 7 -7 2 -13 9 -13 14 0 6 4 8 9 5 11 -7 9 13 -2 32
-5 6 -4 12 1 12 10 0 9 30 -2 48 -4 7 -2 12 6 12 9 0 9 3 -2 10 -13 9 -13 10
0 10 10 0 11 3 3 8 -6 4 46 7 116 6 70 0 134 -4 141 -9 9 -5 11 -4 6 3 -5 8 0
11 16 9 12 -2 29 3 38 13 10 10 12 11 5 1 -6 -10 0 -8 16 4 15 11 25 23 22 28
-2 4 0 7 5 7 5 0 9 8 9 18 0 32 3 43 11 39 4 -3 7 5 7 18 0 13 -4 21 -9 17 -5
-3 -6 3 -3 13 4 9 2 25 -5 33 -11 13 -10 15 2 10 11 -4 15 1 15 17 0 13 -3 21
-7 18 -10 -5 -10 11 -1 20 10 11 10 56 -1 50 -5 -4 -7 1 -3 12 4 9 2 25 -5 33
-11 13 -10 15 2 10 11 -4 15 1 15 17 0 13 -3 21 -7 18 -10 -5 -10 11 -1 20 10
11 10 56 -1 50 -5 -4 -7 1 -3 12 4 9 2 25 -5 33 -11 13 -10 15 2 10 11 -4 15
1 15 17 0 13 -3 21 -7 18 -10 -5 -10 11 -1 20 10 11 10 56 -1 50 -5 -4 -7 1
-3 12 4 9 2 25 -5 33 -11 13 -10 15 2 10 11 -4 15 1 15 17 0 13 -3 21 -7 18
-10 -5 -10 11 -1 20 10 11 10 56 -1 50 -5 -4 -7 1 -3 12 4 9 2 25 -5 33 -11
13 -10 15 2 10 11 -4 15 1 15 17 0 13 -3 21 -7 18 -10 -5 -10 11 -1 20 10 11
10 56 -1 50 -5 -4 -7 1 -3 12 4 9 2 25 -5 33 -11 13 -10 15 3 10 9 -4 16 -1
16 8 0 7 -4 11 -9 8 -7 -5 -12 10 -9 29 0 4 -4 7 -11 7 -6 0 -9 3 -5 6 3 3 -7
17 -23 30 l-28 24 -864 0 c-841 0 -864 -1 -878 -20z"/>
</g>
</svg>
